<svg xmlns="http://www.w3.org/2000/svg" version="1.1" xmlns:xlink="http://www.w3.org/1999/xlink" xmlns:svgjs="http://svgjs.dev/svgjs" width="1500" height="935" viewBox="0 0 1500 935"><g transform="matrix(1,0,0,1,-0.9090909090909918,0.42775303643736606)"><svg viewBox="0 0 396 247" data-background-color="#ffffff" preserveAspectRatio="xMidYMid meet" height="935" width="1500" xmlns="http://www.w3.org/2000/svg" xmlns:xlink="http://www.w3.org/1999/xlink"><g id="tight-bounds" transform="matrix(1,0,0,1,0.2400000000000091,-0.10000000000005116)"><svg viewBox="0 0 395.52 247.2" height="247.2" width="395.52"><g><svg></svg></g><g><svg viewBox="0 0 395.52 247.2" height="247.2" width="395.52"><mask id="b8edaa16-f584-492d-a08a-f93487f04d01"><rect width="395.52" height="247.2" fill="white"></rect><g transform="matrix(1,0,0,1,0,87.0472323688142)" id="clone"><svg viewBox="0 0 395.52 73.10553526237156" height="73.10553526237156" width="395.52"><g><svg viewBox="0 0 395.52 73.10553526237156" height="73.10553526237156" width="395.52"><g><svg viewBox="0 0 395.52 73.10553526237156" height="73.10553526237156" width="395.52"><g><svg viewBox="0 0 395.52 73.10553526237156" height="73.10553526237156" width="395.52"><g id="SvgjsG7797"><svg viewBox="0 0 395.52 73.10553526237156" height="73.10553526237156" width="395.52" id="SvgjsSvg7796"><g><svg viewBox="0 0 395.52 73.10553526237156" height="73.10553526237156" width="395.52"><g transform="matrix(1,0,0,1,0,0)"><svg width="395.52" viewBox="0.98 -44.19 321.26 60.199999999999996" height="73.10553526237156" data-palette-color="#556970"><path d="M38.06-17.63L38.06-17.63Q38.06-15.06 37.38-12.76 36.69-10.45 35.46-8.5 34.23-6.54 32.52-4.97 30.81-3.39 28.75-2.29 26.68-1.2 24.33-0.6 21.97 0 19.48 0L19.48 0 3.98 0 3.98-35.16 19.48-35.16Q21.97-35.16 24.32-34.57 26.66-33.98 28.72-32.9 30.79-31.81 32.51-30.25 34.23-28.69 35.46-26.75 36.69-24.8 37.38-22.5 38.06-20.19 38.06-17.63ZM28.22-17.63L28.22-17.63Q28.22-20.48 27.53-23.06 26.83-25.63 25.37-27.59 23.9-29.54 21.64-30.69 19.38-31.84 16.24-31.84L16.24-31.84 13.67-31.84 13.67-3.42 16.24-3.42Q19.34-3.42 21.59-4.58 23.85-5.74 25.33-7.7 26.81-9.67 27.51-12.23 28.22-14.79 28.22-17.63ZM50.02-13.38L50.02-13.38Q51.54-13.04 53.05-12.84 54.56-12.65 56.1-12.65L56.1-12.65Q57.71-12.65 59.09-12.95 60.47-13.26 61.48-13.98 62.5-14.7 63.08-15.89 63.67-17.09 63.67-18.87L63.67-18.87Q63.67-20.31 63.28-21.51 62.89-22.71 62.12-23.56 61.35-24.41 60.23-24.89 59.1-25.37 57.61-25.37L57.61-25.37Q56.22-25.37 55.11-24.85 54-24.34 53.16-23.47 52.32-22.61 51.72-21.46 51.12-20.31 50.73-19.07 50.34-17.82 50.17-16.55 50-15.28 50-14.16L50-14.16Q50-13.96 50-13.77 50-13.57 50.02-13.38ZM70.36-18.95L70.36-18.95Q70.36-17.21 69.8-15.86 69.24-14.5 68.27-13.48 67.31-12.45 66.04-11.74 64.77-11.04 63.33-10.58 61.89-10.13 60.36-9.94 58.84-9.74 57.39-9.74L57.39-9.74Q55.56-9.74 53.78-10 52-10.25 50.27-10.82L50.27-10.82Q50.53-9.2 51.12-7.75 51.71-6.3 52.68-5.21 53.66-4.13 55.09-3.49 56.52-2.86 58.47-2.86L58.47-2.86Q59.76-2.86 60.94-3.25 62.11-3.64 63.08-4.35 64.06-5.05 64.8-6.03 65.55-7.01 66.01-8.2L66.01-8.2 69.58-6.88Q68.77-4.96 67.37-3.55 65.96-2.15 64.19-1.23 62.42-0.32 60.43 0.12 58.44 0.56 56.49 0.56L56.49 0.56Q53.27 0.56 50.53-0.52 47.8-1.61 45.82-3.56 43.85-5.52 42.72-8.23 41.6-10.94 41.6-14.16L41.6-14.16Q41.6-17.38 42.72-20.09 43.85-22.8 45.82-24.76 47.8-26.71 50.53-27.8 53.27-28.88 56.49-28.88L56.49-28.88Q58.05-28.88 59.69-28.66 61.33-28.44 62.86-27.97 64.4-27.49 65.77-26.73 67.14-25.98 68.15-24.87 69.16-23.75 69.76-22.29 70.36-20.83 70.36-18.95ZM101.12-28.2L90.01 0 82.59 0 72.33-28.2 80.59-28.2 88.11-5.74 95.41-28.2 101.12-28.2ZM134.59-14.06L134.59-14.06Q134.59-10.99 133.66-8.3 132.73-5.62 130.97-3.63 129.22-1.64 126.68-0.49 124.14 0.66 120.92 0.66L120.92 0.66Q119.28 0.66 117.8 0.17 116.33-0.32 115.09-1.21 113.86-2.1 112.92-3.34 111.98-4.59 111.44-6.13L111.44-6.13 107.78 0 104.61 0 104.61-38.57 112.86-38.57 112.86-24.83Q114.32-26.86 116.39-27.81 118.45-28.76 120.92-28.76L120.92-28.76Q124.14-28.76 126.68-27.61 129.22-26.46 130.97-24.49 132.73-22.51 133.66-19.82 134.59-17.14 134.59-14.06ZM126.21-14.06L126.21-14.06Q126.21-15.14 126.1-16.35 125.99-17.55 125.72-18.75 125.46-19.95 124.98-21.04 124.5-22.14 123.77-22.99 123.04-23.83 122.01-24.33 120.99-24.83 119.6-24.83L119.6-24.83Q118.33-24.83 117.34-24.3 116.35-23.78 115.61-22.9 114.86-22.02 114.35-20.9 113.84-19.78 113.52-18.58 113.2-17.38 113.05-16.21 112.91-15.04 112.91-14.06L112.91-14.06Q112.91-12.96 113.02-11.74 113.13-10.52 113.4-9.31 113.66-8.11 114.14-7.02 114.62-5.93 115.36-5.09 116.11-4.25 117.14-3.76 118.18-3.27 119.6-3.27L119.6-3.27Q120.96-3.27 122-3.77 123.04-4.27 123.77-5.11 124.5-5.96 124.98-7.07 125.46-8.18 125.72-9.38 125.99-10.57 126.1-11.78 126.21-12.99 126.21-14.06ZM148.16-32.62L148.16 0 139.91 0 139.91-41.19 143.08-41.19 148.16-32.62ZM184.83-14.16L184.83-14.16Q184.83-11.96 184.24-10.03 183.65-8.11 182.62-6.47 181.58-4.83 180.11-3.53 178.65-2.22 176.9-1.32 175.16-0.42 173.17 0.07 171.18 0.56 169.08 0.56L169.08 0.56Q166.98 0.56 165 0.07 163.02-0.42 161.28-1.32 159.53-2.22 158.07-3.53 156.6-4.83 155.57-6.47 154.53-8.11 153.94-10.05 153.36-11.99 153.36-14.16L153.36-14.16Q153.36-16.33 153.94-18.27 154.53-20.21 155.57-21.85 156.6-23.49 158.07-24.79 159.53-26.1 161.28-27 163.02-27.91 165-28.39 166.98-28.88 169.08-28.88L169.08-28.88Q171.18-28.88 173.17-28.39 175.16-27.91 176.9-27 178.65-26.1 180.11-24.79 181.58-23.49 182.62-21.85 183.65-20.21 184.24-18.27 184.83-16.33 184.83-14.16ZM176.43-14.16L176.43-14.16Q176.43-15.33 176.29-16.64 176.16-17.94 175.84-19.2 175.52-20.46 174.98-21.62 174.43-22.78 173.62-23.65 172.81-24.51 171.69-25.04 170.57-25.56 169.08-25.56L169.08-25.56Q167.66-25.56 166.56-25.02 165.47-24.49 164.65-23.6 163.83-22.71 163.28-21.53 162.73-20.36 162.39-19.1 162.05-17.85 161.9-16.56 161.76-15.28 161.76-14.16L161.76-14.16Q161.76-13.04 161.9-11.76 162.05-10.47 162.39-9.2 162.73-7.93 163.28-6.77 163.83-5.62 164.65-4.72 165.47-3.83 166.56-3.3 167.66-2.76 169.08-2.76L169.08-2.76Q170.54-2.76 171.67-3.28 172.79-3.81 173.61-4.69 174.43-5.57 174.96-6.71 175.5-7.86 175.83-9.13 176.16-10.4 176.29-11.69 176.43-12.99 176.43-14.16ZM218.42-28.2L218.42-3.39Q218.42-0.02 217.42 2.95 216.42 5.93 214.51 8.17 212.61 10.4 209.84 11.71 207.07 13.01 203.53 13.01L203.53 13.01Q201.57 13.01 199.58 12.57 197.59 12.13 195.82 11.22 194.05 10.3 192.65 8.9 191.24 7.5 190.44 5.59L190.44 5.59 194 4.25Q194.47 5.44 195.21 6.45 195.96 7.45 196.93 8.17 197.91 8.89 199.08 9.29 200.25 9.69 201.55 9.69L201.55 9.69Q203.99 9.69 205.64 8.69 207.28 7.69 208.29 6.08 209.29 4.47 209.73 2.43 210.17 0.39 210.17-1.71L210.17-1.71 210.17-3.37Q208.7-1.37 206.64-0.4 204.57 0.56 202.11 0.56L202.11 0.56Q198.89 0.56 196.35-0.59 193.81-1.73 192.05-3.72 190.29-5.71 189.36-8.4 188.44-11.08 188.44-14.16L188.44-14.16Q188.44-17.24 189.36-19.92 190.29-22.61 192.05-24.6 193.81-26.59 196.35-27.73 198.89-28.88 202.11-28.88L202.11-28.88Q203.74-28.88 205.22-28.39 206.7-27.91 207.93-27.01 209.16-26.12 210.1-24.87 211.04-23.61 211.58-22.07L211.58-22.07 215.24-28.2 218.42-28.2ZM210.12-14.16L210.12-14.16Q210.12-15.26 210.01-16.48 209.9-17.7 209.63-18.9 209.36-20.09 208.88-21.18 208.41-22.27 207.66-23.11 206.92-23.95 205.87-24.44 204.82-24.93 203.43-24.93L203.43-24.93Q202.04-24.93 201.01-24.43 199.99-23.93 199.25-23.08 198.52-22.24 198.04-21.14 197.57-20.04 197.3-18.85 197.03-17.65 196.92-16.44 196.81-15.23 196.81-14.16L196.81-14.16Q196.81-13.09 196.92-11.87 197.03-10.64 197.3-9.45 197.57-8.25 198.04-7.15 198.52-6.05 199.25-5.21 199.99-4.37 201.01-3.87 202.04-3.37 203.43-3.37L203.43-3.37Q204.7-3.37 205.69-3.89 206.67-4.42 207.42-5.3 208.16-6.18 208.68-7.3 209.19-8.42 209.51-9.62 209.82-10.82 209.97-12 210.12-13.18 210.12-14.16ZM249.57-9.01L249.57-9.01Q249.57-7.15 249.03-5.71 248.49-4.27 247.57-3.21 246.64-2.15 245.37-1.43 244.1-0.71 242.65-0.27 241.19 0.17 239.61 0.37 238.02 0.56 236.46 0.56L236.46 0.56Q234.36 0.56 232.75 0.29 231.13 0.02 229.67-0.57 228.21-1.17 226.75-2.12 225.3-3.08 223.52-4.44L223.52-4.44 228.33-8.37Q228.99-7.13 230.07-6.12 231.16-5.1 232.33-4.37 233.5-3.64 234.6-3.25 235.7-2.86 236.38-2.86L236.38-2.86Q236.95-2.86 237.65-2.89 238.36-2.93 239.09-3.04 239.83-3.15 240.53-3.37 241.24-3.59 241.79-3.97 242.34-4.35 242.67-4.92 243-5.49 243-6.3L243-6.3Q243-7.13 242.57-7.75 242.15-8.37 241.46-8.84 240.78-9.3 239.9-9.62 239.02-9.94 238.13-10.18 237.24-10.42 236.41-10.61 235.58-10.79 234.97-10.96L234.97-10.96Q233.84-11.28 232.6-11.61 231.35-11.94 230.13-12.37 228.91-12.79 227.8-13.38 226.69-13.96 225.85-14.78 225.01-15.6 224.51-16.71 224.01-17.82 224.01-19.31L224.01-19.31Q224.01-22.05 225.09-23.89 226.18-25.73 227.96-26.84 229.74-27.95 232.01-28.42 234.28-28.88 236.63-28.88L236.63-28.88Q238.24-28.88 240.02-28.55 241.8-28.22 243.49-27.58 245.17-26.93 246.64-26 248.1-25.07 249.08-23.88L249.08-23.88 244.27-19.92Q243.73-21.39 242.87-22.44 242-23.49 240.99-24.16 239.97-24.83 238.91-25.15 237.85-25.46 236.95-25.46L236.95-25.46Q236.07-25.46 234.97-25.39 233.87-25.32 232.9-24.98 231.94-24.63 231.27-23.94 230.6-23.24 230.6-22.02L230.6-22.02Q230.6-21.14 231-20.52 231.4-19.9 232.06-19.45 232.72-18.99 233.56-18.69 234.41-18.38 235.29-18.15 236.16-17.92 236.99-17.75 237.82-17.58 238.48-17.38L238.48-17.38Q239.61-17.07 240.86-16.74 242.12-16.41 243.34-15.98 244.56-15.55 245.7-14.98 246.83-14.4 247.69-13.57 248.54-12.74 249.05-11.63 249.57-10.52 249.57-9.01ZM262.77-3.66L262.77-3.66Q262.77-2.73 262.43-1.92 262.09-1.1 261.48-0.5 260.87 0.1 260.06 0.45 259.26 0.81 258.33 0.81L258.33 0.81Q257.4 0.81 256.6 0.45 255.79 0.1 255.18-0.5 254.57-1.1 254.23-1.92 253.89-2.73 253.89-3.66L253.89-3.66Q253.89-4.57 254.23-5.38 254.57-6.2 255.18-6.8 255.79-7.4 256.6-7.75 257.4-8.11 258.33-8.11L258.33-8.11Q259.26-8.11 260.06-7.75 260.87-7.4 261.48-6.8 262.09-6.2 262.43-5.38 262.77-4.57 262.77-3.66ZM278.32-24.93L278.32 0 270.05 0 270.05-24.93 264.92-24.93 264.92-28.2 270.05-28.2 270.05-38.57 278.32-38.57 278.32-28.2 286.87-28.2 286.87-24.93 278.32-24.93ZM319.24-14.16L319.24-14.16Q319.24-11.96 318.65-10.03 318.07-8.11 317.03-6.47 315.99-4.83 314.53-3.53 313.06-2.22 311.32-1.32 309.57-0.42 307.58 0.07 305.59 0.56 303.49 0.56L303.49 0.56Q301.39 0.56 299.41 0.07 297.44-0.42 295.69-1.32 293.94-2.22 292.48-3.53 291.02-4.83 289.98-6.47 288.94-8.11 288.35-10.05 287.77-11.99 287.77-14.16L287.77-14.16Q287.77-16.33 288.35-18.27 288.94-20.21 289.98-21.85 291.02-23.49 292.48-24.79 293.94-26.1 295.69-27 297.44-27.91 299.41-28.39 301.39-28.88 303.49-28.88L303.49-28.88Q305.59-28.88 307.58-28.39 309.57-27.91 311.32-27 313.06-26.1 314.53-24.79 315.99-23.49 317.03-21.85 318.07-20.21 318.65-18.27 319.24-16.33 319.24-14.16ZM310.84-14.16L310.84-14.16Q310.84-15.33 310.7-16.64 310.57-17.94 310.25-19.2 309.94-20.46 309.39-21.62 308.84-22.78 308.03-23.65 307.23-24.51 306.1-25.04 304.98-25.56 303.49-25.56L303.49-25.56Q302.07-25.56 300.98-25.02 299.88-24.49 299.06-23.6 298.24-22.71 297.69-21.53 297.14-20.36 296.8-19.1 296.46-17.85 296.31-16.56 296.17-15.28 296.17-14.16L296.17-14.16Q296.17-13.04 296.31-11.76 296.46-10.47 296.8-9.2 297.14-7.93 297.69-6.77 298.24-5.62 299.06-4.72 299.88-3.83 300.98-3.3 302.07-2.76 303.49-2.76L303.49-2.76Q304.96-2.76 306.08-3.28 307.2-3.81 308.02-4.69 308.84-5.57 309.37-6.71 309.91-7.86 310.24-9.13 310.57-10.4 310.7-11.69 310.84-12.99 310.84-14.16Z" opacity="1" transform="matrix(1,0,0,1,0,0)" fill="black" class="wordmark-text-0" id="SvgjsPath7795" stroke-width="5" stroke="black" stroke-linejoin="round"></path></svg></g></svg></g></svg></g></svg></g><g></g></svg></g></svg></g></svg></g></mask><g mask="url(#b8edaa16-f584-492d-a08a-f93487f04d01)"><g><path d="M317.576 123.248v0c0 12.047-1.594 23.462-4.781 34.244-3.234 10.828-7.735 20.813-13.501 29.954-5.766 9.188-12.657 17.461-20.672 24.821-8.016 7.406-16.852 13.688-26.509 18.844-9.703 5.11-20.063 9.071-31.079 11.883-11.063 2.813-22.43 4.219-34.102 4.219v0h-108.988v-247.226h108.988c11.672 0 23.016 1.383 34.032 4.148 10.969 2.766 21.282 6.68 30.938 11.743 9.703 5.11 18.587 11.321 26.65 18.633 8.063 7.313 14.977 15.516 20.742 24.61 5.766 9.141 10.266 19.102 13.501 29.884 3.188 10.828 4.781 22.243 4.781 34.243zM248.387 123.248v0c0-13.36-1.617-26.087-4.852-38.18-3.281-12.047-8.344-22.665-15.188-31.853-6.891-9.141-15.633-16.407-26.227-21.798-10.594-5.391-23.251-8.086-37.97-8.086v0h-18.071v199.835h18.071c14.532 0 27.071-2.719 37.618-8.157 10.594-5.438 19.36-12.75 26.298-21.938 6.938-9.235 12.047-19.852 15.328-31.853 3.328-12 4.992-24.657 4.993-37.97z" fill="#556970" fill-rule="nonzero" stroke="none" stroke-width="1" stroke-linecap="butt" stroke-linejoin="miter" stroke-miterlimit="10" stroke-dasharray="" stroke-dashoffset="0" font-family="none" font-weight="none" font-size="none" text-anchor="none" style="mix-blend-mode: normal" data-fill-palette-color="tertiary"></path></g></g><g transform="matrix(1,0,0,1,0,87.0472323688142)"><svg viewBox="0 0 395.52 73.10553526237156" height="73.10553526237156" width="395.52"><g><svg viewBox="0 0 395.52 73.10553526237156" height="73.10553526237156" width="395.52"><g><svg viewBox="0 0 395.52 73.10553526237156" height="73.10553526237156" width="395.52"><g><svg viewBox="0 0 395.52 73.10553526237156" height="73.10553526237156" width="395.52"><g id="textblocktransform"><svg viewBox="0 0 395.52 73.10553526237156" height="73.10553526237156" width="395.52" id="textblock"><g><svg viewBox="0 0 395.52 73.10553526237156" height="73.10553526237156" width="395.52"><g transform="matrix(1,0,0,1,0,0)"><svg width="395.52" viewBox="0.98 -44.19 321.26 60.199999999999996" height="73.10553526237156" data-palette-color="#556970"><path d="M38.06-17.63L38.06-17.63Q38.06-15.06 37.38-12.76 36.69-10.45 35.46-8.5 34.23-6.54 32.52-4.97 30.81-3.39 28.75-2.29 26.68-1.2 24.33-0.6 21.97 0 19.48 0L19.48 0 3.98 0 3.98-35.16 19.48-35.16Q21.97-35.16 24.32-34.57 26.66-33.98 28.72-32.9 30.79-31.81 32.51-30.25 34.23-28.69 35.46-26.75 36.69-24.8 37.38-22.5 38.06-20.19 38.06-17.63ZM28.22-17.63L28.22-17.63Q28.22-20.48 27.53-23.06 26.83-25.63 25.37-27.59 23.9-29.54 21.64-30.69 19.38-31.84 16.24-31.84L16.24-31.84 13.67-31.84 13.67-3.42 16.24-3.42Q19.34-3.42 21.59-4.58 23.85-5.74 25.33-7.7 26.81-9.67 27.51-12.23 28.22-14.79 28.22-17.63ZM50.02-13.38L50.02-13.38Q51.54-13.04 53.05-12.84 54.56-12.65 56.1-12.65L56.1-12.65Q57.71-12.65 59.09-12.95 60.47-13.26 61.48-13.98 62.5-14.7 63.08-15.89 63.67-17.09 63.67-18.87L63.67-18.87Q63.67-20.31 63.28-21.51 62.89-22.71 62.12-23.56 61.35-24.41 60.23-24.89 59.1-25.37 57.61-25.37L57.61-25.37Q56.22-25.37 55.11-24.85 54-24.34 53.16-23.47 52.32-22.61 51.72-21.46 51.12-20.31 50.73-19.07 50.34-17.82 50.17-16.55 50-15.28 50-14.16L50-14.16Q50-13.96 50-13.77 50-13.57 50.02-13.38ZM70.36-18.95L70.36-18.95Q70.36-17.21 69.8-15.86 69.24-14.5 68.27-13.48 67.31-12.45 66.04-11.74 64.77-11.04 63.33-10.58 61.89-10.13 60.36-9.94 58.84-9.74 57.39-9.74L57.39-9.74Q55.56-9.74 53.78-10 52-10.25 50.27-10.82L50.27-10.82Q50.53-9.2 51.12-7.75 51.71-6.3 52.68-5.21 53.66-4.13 55.09-3.49 56.52-2.86 58.47-2.86L58.47-2.86Q59.76-2.86 60.94-3.25 62.11-3.64 63.08-4.35 64.06-5.05 64.8-6.03 65.55-7.01 66.01-8.2L66.01-8.2 69.58-6.88Q68.77-4.96 67.37-3.55 65.96-2.15 64.19-1.23 62.42-0.32 60.43 0.12 58.44 0.56 56.49 0.56L56.49 0.56Q53.27 0.56 50.53-0.52 47.8-1.61 45.82-3.56 43.85-5.52 42.72-8.23 41.6-10.94 41.6-14.16L41.6-14.16Q41.6-17.38 42.72-20.09 43.85-22.8 45.82-24.76 47.8-26.71 50.53-27.8 53.27-28.88 56.49-28.88L56.49-28.88Q58.05-28.88 59.69-28.66 61.33-28.44 62.86-27.97 64.4-27.49 65.77-26.73 67.14-25.98 68.15-24.87 69.16-23.75 69.76-22.29 70.36-20.83 70.36-18.95ZM101.12-28.2L90.01 0 82.59 0 72.33-28.2 80.59-28.2 88.11-5.74 95.41-28.2 101.12-28.2ZM134.59-14.06L134.59-14.06Q134.59-10.99 133.66-8.3 132.73-5.62 130.97-3.63 129.22-1.64 126.68-0.49 124.14 0.66 120.92 0.66L120.92 0.66Q119.28 0.66 117.8 0.17 116.33-0.32 115.09-1.21 113.86-2.1 112.92-3.34 111.98-4.59 111.44-6.13L111.44-6.13 107.78 0 104.61 0 104.61-38.57 112.86-38.57 112.86-24.83Q114.32-26.86 116.39-27.81 118.45-28.76 120.92-28.76L120.92-28.76Q124.14-28.76 126.68-27.61 129.22-26.46 130.97-24.49 132.73-22.51 133.66-19.82 134.59-17.14 134.59-14.06ZM126.21-14.06L126.21-14.06Q126.21-15.14 126.1-16.35 125.99-17.55 125.72-18.75 125.46-19.95 124.98-21.04 124.5-22.14 123.77-22.99 123.04-23.83 122.01-24.33 120.99-24.83 119.6-24.83L119.6-24.83Q118.33-24.83 117.34-24.3 116.35-23.78 115.61-22.9 114.86-22.02 114.35-20.9 113.84-19.78 113.52-18.58 113.2-17.38 113.05-16.21 112.91-15.04 112.91-14.06L112.91-14.06Q112.91-12.96 113.02-11.74 113.13-10.52 113.4-9.31 113.66-8.11 114.14-7.02 114.62-5.93 115.36-5.09 116.11-4.25 117.14-3.76 118.18-3.27 119.6-3.27L119.6-3.27Q120.96-3.27 122-3.77 123.04-4.27 123.77-5.11 124.5-5.96 124.98-7.07 125.46-8.18 125.72-9.38 125.99-10.57 126.1-11.78 126.21-12.99 126.21-14.06ZM148.16-32.62L148.16 0 139.91 0 139.91-41.19 143.08-41.19 148.16-32.62ZM184.83-14.16L184.83-14.16Q184.83-11.96 184.24-10.03 183.65-8.11 182.62-6.47 181.58-4.83 180.11-3.53 178.65-2.22 176.9-1.32 175.16-0.42 173.17 0.07 171.18 0.56 169.08 0.56L169.08 0.56Q166.98 0.56 165 0.07 163.02-0.42 161.28-1.32 159.53-2.22 158.07-3.53 156.6-4.83 155.57-6.47 154.53-8.11 153.94-10.05 153.36-11.99 153.36-14.16L153.36-14.16Q153.36-16.33 153.94-18.27 154.53-20.21 155.57-21.85 156.6-23.49 158.07-24.79 159.53-26.1 161.28-27 163.02-27.91 165-28.39 166.98-28.88 169.08-28.88L169.08-28.88Q171.18-28.88 173.17-28.39 175.16-27.91 176.9-27 178.65-26.1 180.11-24.79 181.58-23.49 182.62-21.85 183.65-20.21 184.24-18.27 184.83-16.33 184.83-14.16ZM176.43-14.16L176.43-14.16Q176.43-15.33 176.29-16.64 176.16-17.94 175.84-19.2 175.52-20.46 174.98-21.62 174.43-22.78 173.62-23.65 172.81-24.51 171.69-25.04 170.57-25.56 169.08-25.56L169.08-25.56Q167.66-25.56 166.56-25.02 165.47-24.49 164.65-23.6 163.83-22.71 163.28-21.53 162.73-20.36 162.39-19.1 162.05-17.85 161.9-16.56 161.76-15.28 161.76-14.16L161.76-14.16Q161.76-13.04 161.9-11.76 162.05-10.47 162.39-9.2 162.73-7.93 163.28-6.77 163.83-5.62 164.65-4.72 165.47-3.83 166.56-3.3 167.66-2.76 169.08-2.76L169.08-2.76Q170.54-2.76 171.67-3.28 172.79-3.81 173.61-4.69 174.43-5.57 174.96-6.71 175.5-7.86 175.83-9.13 176.16-10.4 176.29-11.69 176.43-12.99 176.43-14.16ZM218.42-28.2L218.42-3.39Q218.42-0.02 217.42 2.95 216.42 5.93 214.51 8.17 212.61 10.4 209.84 11.71 207.07 13.01 203.53 13.01L203.53 13.01Q201.57 13.01 199.58 12.57 197.59 12.13 195.82 11.22 194.05 10.3 192.65 8.9 191.24 7.5 190.44 5.59L190.44 5.59 194 4.25Q194.47 5.44 195.21 6.45 195.96 7.45 196.93 8.17 197.91 8.89 199.08 9.29 200.25 9.69 201.55 9.69L201.55 9.69Q203.99 9.69 205.64 8.69 207.28 7.69 208.29 6.08 209.29 4.47 209.73 2.43 210.17 0.39 210.17-1.71L210.17-1.71 210.17-3.37Q208.7-1.37 206.64-0.4 204.57 0.56 202.11 0.56L202.11 0.56Q198.89 0.56 196.35-0.59 193.81-1.73 192.05-3.72 190.29-5.71 189.36-8.4 188.44-11.08 188.44-14.16L188.44-14.16Q188.44-17.24 189.36-19.92 190.29-22.61 192.05-24.6 193.81-26.59 196.35-27.73 198.89-28.88 202.11-28.88L202.11-28.88Q203.74-28.88 205.22-28.39 206.7-27.91 207.93-27.01 209.16-26.12 210.1-24.87 211.04-23.61 211.58-22.07L211.58-22.07 215.24-28.2 218.42-28.2ZM210.12-14.16L210.12-14.16Q210.12-15.26 210.01-16.48 209.9-17.7 209.63-18.9 209.36-20.09 208.88-21.18 208.41-22.27 207.66-23.11 206.92-23.95 205.87-24.44 204.82-24.93 203.43-24.93L203.43-24.93Q202.04-24.93 201.01-24.43 199.99-23.93 199.25-23.08 198.52-22.24 198.04-21.14 197.57-20.04 197.3-18.85 197.03-17.65 196.92-16.44 196.81-15.23 196.81-14.16L196.81-14.16Q196.81-13.09 196.92-11.87 197.03-10.64 197.3-9.45 197.57-8.25 198.04-7.15 198.52-6.05 199.25-5.21 199.99-4.37 201.01-3.87 202.04-3.37 203.43-3.37L203.43-3.37Q204.7-3.37 205.69-3.89 206.67-4.42 207.42-5.3 208.16-6.18 208.68-7.3 209.19-8.42 209.51-9.62 209.82-10.82 209.97-12 210.12-13.18 210.12-14.16ZM249.57-9.01L249.57-9.01Q249.57-7.15 249.03-5.71 248.49-4.27 247.57-3.21 246.64-2.15 245.37-1.43 244.1-0.71 242.65-0.27 241.19 0.17 239.61 0.37 238.02 0.56 236.46 0.56L236.46 0.56Q234.36 0.56 232.75 0.29 231.13 0.02 229.67-0.57 228.21-1.17 226.75-2.12 225.3-3.08 223.52-4.44L223.52-4.44 228.33-8.37Q228.99-7.13 230.07-6.12 231.16-5.1 232.33-4.37 233.5-3.64 234.6-3.25 235.7-2.86 236.38-2.86L236.38-2.86Q236.95-2.86 237.65-2.89 238.36-2.93 239.09-3.04 239.83-3.15 240.53-3.37 241.24-3.59 241.79-3.97 242.34-4.35 242.67-4.92 243-5.49 243-6.3L243-6.3Q243-7.13 242.57-7.75 242.15-8.37 241.46-8.84 240.78-9.3 239.9-9.62 239.02-9.94 238.13-10.18 237.24-10.42 236.41-10.61 235.58-10.79 234.97-10.96L234.97-10.96Q233.84-11.28 232.6-11.61 231.35-11.94 230.13-12.37 228.91-12.79 227.8-13.38 226.69-13.96 225.85-14.78 225.01-15.6 224.51-16.71 224.01-17.82 224.01-19.31L224.01-19.31Q224.01-22.05 225.09-23.89 226.18-25.73 227.96-26.84 229.74-27.95 232.01-28.42 234.28-28.88 236.63-28.88L236.63-28.88Q238.24-28.88 240.02-28.55 241.8-28.22 243.49-27.58 245.17-26.93 246.64-26 248.1-25.07 249.08-23.88L249.08-23.88 244.27-19.92Q243.73-21.39 242.87-22.44 242-23.49 240.99-24.16 239.97-24.83 238.91-25.15 237.85-25.46 236.95-25.46L236.95-25.46Q236.07-25.46 234.97-25.39 233.87-25.32 232.9-24.98 231.94-24.63 231.27-23.94 230.6-23.24 230.6-22.02L230.6-22.02Q230.6-21.14 231-20.52 231.4-19.9 232.06-19.45 232.72-18.99 233.56-18.69 234.41-18.38 235.29-18.15 236.16-17.92 236.99-17.75 237.82-17.58 238.48-17.38L238.48-17.38Q239.61-17.07 240.86-16.74 242.12-16.41 243.34-15.98 244.56-15.55 245.7-14.98 246.83-14.4 247.69-13.57 248.54-12.74 249.05-11.63 249.57-10.52 249.57-9.01ZM262.77-3.66L262.77-3.66Q262.77-2.73 262.43-1.92 262.09-1.1 261.48-0.5 260.87 0.1 260.06 0.45 259.26 0.81 258.33 0.81L258.33 0.81Q257.4 0.81 256.6 0.45 255.79 0.1 255.18-0.5 254.57-1.1 254.23-1.92 253.89-2.73 253.89-3.66L253.89-3.66Q253.89-4.57 254.23-5.38 254.57-6.2 255.18-6.8 255.79-7.4 256.6-7.75 257.4-8.11 258.33-8.11L258.33-8.11Q259.26-8.11 260.06-7.75 260.87-7.4 261.48-6.8 262.09-6.2 262.43-5.38 262.77-4.57 262.77-3.66ZM278.32-24.93L278.32 0 270.05 0 270.05-24.93 264.92-24.93 264.92-28.2 270.05-28.2 270.05-38.57 278.32-38.57 278.32-28.2 286.87-28.2 286.87-24.93 278.32-24.93ZM319.24-14.16L319.24-14.16Q319.24-11.96 318.65-10.03 318.07-8.11 317.03-6.47 315.99-4.83 314.53-3.53 313.06-2.22 311.32-1.32 309.57-0.42 307.58 0.07 305.59 0.56 303.49 0.56L303.49 0.56Q301.39 0.56 299.41 0.07 297.44-0.42 295.69-1.32 293.94-2.22 292.48-3.53 291.02-4.83 289.98-6.47 288.94-8.11 288.35-10.05 287.77-11.99 287.77-14.16L287.77-14.16Q287.77-16.33 288.35-18.27 288.94-20.21 289.98-21.85 291.02-23.49 292.48-24.79 293.94-26.1 295.69-27 297.44-27.91 299.41-28.39 301.39-28.88 303.49-28.88L303.49-28.88Q305.59-28.88 307.58-28.39 309.57-27.91 311.32-27 313.06-26.1 314.53-24.79 315.99-23.49 317.03-21.85 318.07-20.21 318.65-18.27 319.24-16.33 319.24-14.16ZM310.84-14.16L310.84-14.16Q310.84-15.33 310.7-16.64 310.57-17.94 310.25-19.2 309.94-20.46 309.39-21.62 308.84-22.78 308.03-23.65 307.23-24.51 306.1-25.04 304.98-25.56 303.49-25.56L303.49-25.56Q302.07-25.56 300.98-25.02 299.88-24.49 299.06-23.6 298.24-22.71 297.69-21.53 297.14-20.36 296.8-19.1 296.46-17.85 296.31-16.56 296.17-15.28 296.17-14.16L296.17-14.16Q296.17-13.04 296.31-11.76 296.46-10.47 296.8-9.2 297.14-7.93 297.69-6.77 298.24-5.62 299.06-4.72 299.88-3.83 300.98-3.3 302.07-2.76 303.49-2.76L303.49-2.76Q304.96-2.76 306.08-3.28 307.2-3.81 308.02-4.69 308.84-5.57 309.37-6.71 309.91-7.86 310.24-9.13 310.57-10.4 310.7-11.69 310.84-12.99 310.84-14.16Z" opacity="1" transform="matrix(1,0,0,1,0,0)" fill="#556970" class="wordmark-text-0" data-fill-palette-color="primary" id="text-0"></path></svg></g></svg></g></svg></g></svg></g><g></g></svg></g></svg></g></svg></g></svg></g><defs></defs></svg><rect width="395.52" height="247.2" fill="none" stroke="none" visibility="hidden"></rect></g></svg></g></svg>